<svg width="26" height="26" viewBox="0 0 26 26" fill="none" xmlns="http://www.w3.org/2000/svg">
<path d="M20.3125 11.375C20.651 11.375 20.9684 11.4385 21.2646 11.5654C21.5609 11.6924 21.819 11.8659 22.0391 12.0859C22.2591 12.306 22.4326 12.5641 22.5596 12.8604C22.6865 13.1566 22.75 13.474 22.75 13.8125V18.6875C22.75 19.6947 22.5596 20.6426 22.1787 21.5312C21.7979 22.4199 21.2731 23.1943 20.6045 23.8545C19.9359 24.5146 19.1615 25.0352 18.2812 25.416C17.401 25.7969 16.4531 25.9915 15.4375 26C14.2187 26 13.0846 25.7673 12.0352 25.3018C10.9857 24.8363 10.0293 24.1761 9.16602 23.3213L3.17383 17.3291C2.93685 17.0921 2.75488 16.8171 2.62793 16.5039C2.50098 16.1908 2.4375 15.8691 2.4375 15.5391C2.4375 15.1836 2.50521 14.8535 2.64062 14.5488C2.77604 14.2441 2.95801 13.9733 3.18652 13.7363C3.41504 13.4993 3.68164 13.3216 3.98633 13.2031C4.29102 13.0846 4.62109 13.0169 4.97656 13C5.67057 13 6.26725 13.2497 6.7666 13.749L8.125 15.0947V10.8291C7.62565 10.5921 7.17708 10.2959 6.7793 9.94043C6.38151 9.58496 6.04297 9.18294 5.76367 8.73437C5.48437 8.28581 5.26432 7.80339 5.10352 7.28711C4.94271 6.77083 4.86654 6.23763 4.875 5.6875C4.875 4.90039 5.02311 4.16406 5.31934 3.47852C5.61556 2.79297 6.02181 2.18783 6.53809 1.66309C7.05436 1.13835 7.65527 0.732096 8.34082 0.444336C9.02637 0.156576 9.76693 0.00846354 10.5625 0C11.3496 0 12.0859 0.148112 12.7715 0.444336C13.457 0.74056 14.0622 1.14681 14.5869 1.66309C15.1117 2.17936 15.5179 2.78027 15.8057 3.46582C16.0934 4.15137 16.2415 4.89193 16.25 5.6875C16.25 6.47461 16.0934 7.22786 15.7803 7.94727C15.4671 8.66667 15.0228 9.2972 14.4473 9.83887C14.7435 9.91504 15.0101 10.042 15.2471 10.2197C15.484 10.3975 15.6914 10.6175 15.8691 10.8799C16.25 10.6683 16.6478 10.5625 17.0625 10.5625C17.4857 10.5625 17.8792 10.6598 18.2432 10.8545C18.6071 11.0492 18.8991 11.3285 19.1191 11.6924C19.5 11.4808 19.8978 11.375 20.3125 11.375ZM6.5 5.6875C6.5 6.32227 6.64388 6.92741 6.93164 7.50293C7.2194 8.07845 7.61719 8.55664 8.125 8.9375V5.6875C8.125 5.34896 8.18848 5.03158 8.31543 4.73535C8.44238 4.43913 8.61589 4.18099 8.83594 3.96094C9.05599 3.74089 9.31413 3.56738 9.61035 3.44043C9.90658 3.31348 10.224 3.25 10.5625 3.25C10.901 3.25 11.2184 3.31348 11.5146 3.44043C11.8109 3.56738 12.069 3.74089 12.2891 3.96094C12.5091 4.18099 12.6826 4.43913 12.8096 4.73535C12.9365 5.03158 13 5.34896 13 5.6875V8.9375C13.5078 8.55664 13.9056 8.07845 14.1934 7.50293C14.4811 6.92741 14.625 6.32227 14.625 5.6875C14.625 5.12891 14.5192 4.60417 14.3076 4.11328C14.096 3.6224 13.804 3.19499 13.4316 2.83105C13.0592 2.46712 12.6276 2.17513 12.1367 1.95508C11.6458 1.73503 11.1211 1.625 10.5625 1.625C10.0039 1.625 9.47917 1.73079 8.98828 1.94238C8.4974 2.15397 8.06576 2.44596 7.69336 2.81836C7.32096 3.19076 7.02897 3.6224 6.81738 4.11328C6.60579 4.60417 6.5 5.12891 6.5 5.6875ZM21.125 13.8125C21.125 13.5924 21.0446 13.402 20.8838 13.2412C20.723 13.0804 20.5326 13 20.3125 13C20.0247 13 19.8258 13.0804 19.7158 13.2412C19.6058 13.402 19.5381 13.6009 19.5127 13.8379C19.4873 14.0749 19.4831 14.3372 19.5 14.625C19.5169 14.9128 19.5169 15.1709 19.5 15.3994C19.4831 15.6279 19.4154 15.8311 19.2969 16.0088C19.1784 16.1865 18.9753 16.2669 18.6875 16.25C18.3743 16.25 18.1628 16.1527 18.0527 15.958C17.9427 15.7633 17.875 15.5094 17.8496 15.1963C17.8242 14.8831 17.8327 14.5573 17.875 14.2187C17.9173 13.8802 17.9258 13.5544 17.9004 13.2412C17.875 12.9281 17.8115 12.6784 17.71 12.4922C17.6084 12.306 17.3926 12.2044 17.0625 12.1875C16.7747 12.1875 16.5758 12.2679 16.4658 12.4287C16.3558 12.5895 16.2881 12.7884 16.2627 13.0254C16.2373 13.2624 16.2331 13.5247 16.25 13.8125C16.2669 14.1003 16.2669 14.3584 16.25 14.5869C16.2331 14.8154 16.1654 15.0186 16.0469 15.1963C15.9284 15.374 15.7253 15.4544 15.4375 15.4375C15.1243 15.4375 14.9128 15.3402 14.8027 15.1455C14.6927 14.9508 14.625 14.6969 14.5996 14.3838C14.5742 14.0706 14.5827 13.7448 14.625 13.4062C14.6673 13.0677 14.6758 12.7419 14.6504 12.4287C14.625 12.1156 14.5615 11.8659 14.46 11.6797C14.3584 11.4935 14.1426 11.3919 13.8125 11.375C13.5247 11.375 13.3258 11.4554 13.2158 11.6162C13.1058 11.777 13.0381 11.9759 13.0127 12.2129C12.9873 12.4499 12.9831 12.7122 13 13C13.0169 13.2878 13.0169 13.5459 13 13.7744C12.9831 14.0029 12.9154 14.2061 12.7969 14.3838C12.6784 14.5615 12.4753 14.6419 12.1875 14.625C11.9674 14.625 11.777 14.5446 11.6162 14.3838C11.4554 14.223 11.375 14.0326 11.375 13.8125V5.6875C11.375 5.46745 11.2946 5.27702 11.1338 5.11621C10.973 4.9554 10.7826 4.875 10.5625 4.875C10.3424 4.875 10.152 4.9554 9.99121 5.11621C9.8304 5.27702 9.75 5.46745 9.75 5.6875V15.6787C9.75 15.8734 9.71615 16.0511 9.64844 16.2119C9.58073 16.3727 9.4834 16.5208 9.35645 16.6562C9.22949 16.7917 9.08138 16.889 8.91211 16.9482C8.74284 17.0075 8.5651 17.0456 8.37891 17.0625C8.19271 17.0625 8.01497 17.0286 7.8457 16.9609C7.67643 16.8932 7.51986 16.7917 7.37598 16.6562L5.61133 14.8916C5.43359 14.7139 5.22201 14.625 4.97656 14.625C4.73112 14.625 4.51953 14.7139 4.3418 14.8916C4.16406 15.0693 4.07096 15.2852 4.0625 15.5391C4.0625 15.7845 4.15137 15.9961 4.3291 16.1738L10.3213 22.1787C11.0322 22.8896 11.8109 23.4313 12.6572 23.8037C13.5036 24.1761 14.4303 24.3665 15.4375 24.375C16.2246 24.375 16.9609 24.2269 17.6465 23.9307C18.332 23.6344 18.9329 23.2282 19.4492 22.7119C19.9655 22.1956 20.3717 21.5947 20.668 20.9092C20.9642 20.2236 21.1165 19.4831 21.125 18.6875V13.8125Z" fill="white"/>
<path d="M6.5 5.6875C6.5 6.32227 6.64388 6.92741 6.93164 7.50293C7.2194 8.07845 7.61719 8.55664 8.125 8.9375V5.6875C8.125 5.34896 8.18848 5.03158 8.31543 4.73535C8.44238 4.43913 8.61589 4.18099 8.83594 3.96094C9.05599 3.74089 9.31413 3.56738 9.61035 3.44043C9.90658 3.31348 10.224 3.25 10.5625 3.25C10.901 3.25 11.2184 3.31348 11.5146 3.44043C11.8109 3.56738 12.069 3.74089 12.2891 3.96094C12.5091 4.18099 12.6826 4.43913 12.8096 4.73535C12.9365 5.03158 13 5.34896 13 5.6875V8.9375C13.5078 8.55664 13.9056 8.07845 14.1934 7.50293C14.4811 6.92741 14.625 6.32227 14.625 5.6875C14.625 5.12891 14.5192 4.60417 14.3076 4.11328C14.096 3.6224 13.804 3.19499 13.4316 2.83105C13.0592 2.46712 12.6276 2.17513 12.1367 1.95508C11.6458 1.73503 11.1211 1.625 10.5625 1.625C10.0039 1.625 9.47917 1.73079 8.98828 1.94238C8.4974 2.15397 8.06576 2.44596 7.69336 2.81836C7.32096 3.19076 7.02897 3.6224 6.81738 4.11328C6.60579 4.60417 6.5 5.12891 6.5 5.6875Z" fill="white"/>
</svg>
