<svg width="26" height="26" viewBox="0 0 26 26" fill="none" xmlns="http://www.w3.org/2000/svg">
<path d="M14.5488 10.6895C13.9623 10.6895 13.5078 11.1439 13.5078 11.7051C13.5078 12.2662 13.9623 12.7207 14.5488 12.7207C15.0846 12.7207 15.5391 12.2662 15.5391 11.7051C15.5391 11.1439 15.0846 10.6895 14.5488 10.6895ZM7.43945 10.6895C6.85293 10.6895 6.39844 11.1439 6.39844 11.7051C6.39844 12.2662 6.85293 12.7207 7.43945 12.7207C7.9752 12.7207 8.42969 12.2662 8.42969 11.7051C8.42969 11.1439 7.9752 10.6895 7.43945 10.6895Z" fill="black"/>
<path d="M22.6994 8.7598C21.4781 7.08402 19.7718 5.9643 17.9005 5.45902V5.46156C17.4664 4.97914 16.9763 4.5348 16.4279 4.13871C12.2714 1.11722 6.43667 2.0389 3.40249 6.19535C0.957376 9.5723 1.06148 14.1147 3.55484 17.3418L3.57515 20.7086C3.57515 20.7899 3.58784 20.8711 3.61324 20.9473C3.74781 21.3764 4.20484 21.6125 4.6314 21.478L7.84585 20.4649C8.69644 20.767 9.57495 20.9397 10.4484 20.9879L10.4357 20.9981C12.698 22.6459 15.6636 23.1411 18.383 22.2422L21.6101 23.2934C21.6914 23.3188 21.7751 23.334 21.8615 23.334C22.3109 23.334 22.674 22.9709 22.674 22.5215V19.1192C24.9109 16.0825 24.9693 11.8854 22.6994 8.7598ZM8.20132 18.6621L7.89663 18.5352L5.38296 19.3223L5.35757 16.6817L5.15445 16.4532C3.0064 13.8329 2.86421 10.0573 4.87515 7.28715C7.32281 3.93051 12.015 3.1891 15.3615 5.61137C18.7181 8.0514 19.4621 12.736 17.0373 16.0723C15.0035 18.8627 11.3625 19.8936 8.20132 18.6621ZM21.0236 18.2305L20.8205 18.4844L20.8459 21.125L18.3576 20.2871L18.0529 20.4141C16.631 20.9422 15.1152 20.9854 13.7111 20.5918L13.706 20.5893C15.5824 20.0129 17.2835 18.845 18.5099 17.1641C20.4498 14.4905 20.7646 11.1313 19.6373 8.26723L19.6525 8.27738C20.2365 8.69633 20.7722 9.21937 21.2267 9.8516C23.0701 12.3805 22.966 15.8235 21.0236 18.2305Z" fill="black"/>
<path d="M10.9941 10.6895C10.4076 10.6895 9.95312 11.1439 9.95312 11.7051C9.95312 12.2662 10.4076 12.7207 10.9941 12.7207C11.5299 12.7207 11.9844 12.2662 11.9844 11.7051C11.9844 11.1439 11.5299 10.6895 10.9941 10.6895Z" fill="black"/>
</svg>
