<svg width="115" height="120" viewBox="0 0 115 120" fill="none" xmlns="http://www.w3.org/2000/svg">
<path d="M106.914 74.1042C104.248 73.6341 102.904 71.7431 103.285 69.5849C103.669 67.4038 105.577 66.0981 108.243 66.5681C110.921 67.0402 112.255 68.9178 111.871 71.0989C111.49 73.2571 109.592 74.5763 106.914 74.1042ZM107.136 72.8463C109.167 73.2044 110.453 72.3245 110.705 70.8934C110.96 69.4508 110.052 68.1842 108.021 67.8261C105.99 67.4679 104.705 68.3479 104.45 69.7905C104.198 71.2215 105.105 72.4881 107.136 72.8463Z" fill="white" style="mix-blend-mode:exclusion"/>
<path d="M107.245 85.4826L99.3954 82.2621L99.8446 81.1671L107.212 79.5413L107.239 79.4762L101.504 77.1231L101.993 75.9305L109.843 79.151L109.389 80.2569L102.01 81.8782L101.979 81.9541L107.725 84.3117L107.245 85.4826Z" fill="white" style="mix-blend-mode:exclusion"/>
<path d="M97.3491 85.9279L104.332 90.7475L103.599 91.8084L97.533 87.6211L95.3562 90.7748L94.44 90.1424L97.3491 85.9279Z" fill="white" style="mix-blend-mode:exclusion"/>
<path d="M94.9994 101.986L89.2047 95.7892L90.1463 94.9088L95.9409 101.106L94.9994 101.986Z" fill="white" style="mix-blend-mode:exclusion"/>
<path d="M82.9352 110.611L78.5948 103.321L79.6117 102.715L86.4785 105.841L86.5389 105.806L83.3675 100.479L84.4751 99.8195L88.8156 107.11L87.7885 107.721L80.9158 104.585L80.8453 104.627L84.0227 109.963L82.9352 110.611Z" fill="white" style="mix-blend-mode:exclusion"/>
<path d="M74.7561 105.022L77.4428 113.069L72.3963 114.754L72.0438 113.698L75.8676 112.422L75.0549 109.987L71.4979 111.175L71.149 110.13L74.706 108.942L73.8859 106.486L70.0177 107.777L69.6651 106.721L74.7561 105.022Z" fill="white" style="mix-blend-mode:exclusion"/>
<path d="M51.4149 116.42L52.3244 107.984L53.6061 108.122L52.6965 116.558L51.4149 116.42Z" fill="white" style="mix-blend-mode:exclusion"/>
<path d="M37.0045 112.914L39.6912 104.866L40.8139 105.241L42.9303 112.483L42.9969 112.506L44.96 106.625L46.1828 107.034L43.496 115.081L42.3622 114.703L40.2496 107.45L40.1718 107.424L38.205 113.315L37.0045 112.914Z" fill="white" style="mix-blend-mode:exclusion"/>
<path d="M32.6884 104.365L31.6009 103.717L31.4357 102.391C30.6876 102.56 29.9529 103.118 29.3594 104.115C28.3043 105.887 28.6712 107.401 29.9197 108.145C31.1784 108.894 32.6843 108.495 33.7395 106.723C34.7946 104.951 34.4277 103.436 33.1691 102.687C32.9375 102.549 32.703 102.45 32.4546 102.398L32.6884 104.365ZM28.2619 103.461C29.0592 102.122 30.1429 101.356 31.2788 101.166L31.0534 99.2998L32.1912 99.9772L32.3258 101.148C32.8174 101.216 33.3064 101.391 33.7746 101.67C35.6776 102.803 36.2219 105.05 34.837 107.376C33.4462 109.712 31.2173 110.295 29.3142 109.162C27.4313 108.04 26.871 105.797 28.2619 103.461Z" fill="white" style="mix-blend-mode:exclusion"/>
<path d="M18.5238 100.688L17.5822 99.8079L21.392 95.7334C22.6085 94.4323 24.4488 94.4203 25.9296 95.8049C27.4276 97.2056 27.5304 99.0344 26.3139 100.336L22.5041 104.41L21.5625 103.53L25.3003 99.5322C26.0846 98.6933 26.0708 97.5413 25.1292 96.6609C24.1962 95.7885 23.0459 95.852 22.2615 96.6909L18.5238 100.688Z" fill="white" style="mix-blend-mode:exclusion"/>
<path d="M12.0222 92.8356L19.0047 88.0159L19.737 89.0768L12.7545 93.8965L12.0222 92.8356Z" fill="white" style="mix-blend-mode:exclusion"/>
<path d="M15.5224 82.2767L7.67299 85.4972L6.52535 82.7C5.77806 80.8786 6.42797 79.5606 7.86992 78.969C8.92699 78.5353 9.92499 78.6832 10.6688 79.4927L13.1337 76.4547L13.6897 77.8099L11.3838 80.618L11.415 80.6939L12.0733 82.2984L15.0331 81.0841L15.5224 82.2767ZM11.0433 82.721L10.4339 81.2357C9.95797 80.0756 9.25269 79.8077 8.36367 80.1724C7.47465 80.5372 7.11745 81.2411 7.5934 82.4011L8.20281 83.8864L11.0433 82.721Z" fill="white" style="mix-blend-mode:exclusion"/>
<path d="M3.84507 74.9833L3.59071 73.5407L6.99349 70.7036L6.97721 70.6113L2.80725 69.0975L2.55288 67.6549L8.16599 69.7948L11.4436 69.2169L11.6674 70.4863L8.38983 71.0643L3.84507 74.9833Z" fill="white" style="mix-blend-mode:exclusion"/>
<path d="M8.08571 45.0477C10.7516 45.5178 12.096 47.4089 11.7155 49.567C11.3309 51.7482 9.4228 53.0539 6.75689 52.5838C4.07945 52.1117 2.74457 50.2342 3.12917 48.053C3.50971 45.8949 5.40827 44.5756 8.08571 45.0477ZM7.8639 46.3057C5.83274 45.9475 4.54712 46.8275 4.29479 48.2585C4.04042 49.7011 4.94754 50.9677 6.9787 51.3259C9.00987 51.684 10.2955 50.8041 10.5499 49.3615C10.8022 47.9304 9.89507 46.6638 7.8639 46.3057Z" fill="white" style="mix-blend-mode:exclusion"/>
<path d="M7.75525 33.6693L15.6046 36.8898L15.1554 37.9848L7.78762 39.6106L7.76093 39.6756L13.4962 42.0287L13.0069 43.2213L5.1575 40.0008L5.61121 38.895L12.9898 37.2736L13.0209 37.1977L7.27484 34.8402L7.75525 33.6693Z" fill="white" style="mix-blend-mode:exclusion"/>
<path d="M17.6509 33.2241L10.6684 28.4044L11.4007 27.3436L17.467 31.5308L19.6438 28.3771L20.56 29.0095L17.6509 33.2241Z" fill="white" style="mix-blend-mode:exclusion"/>
<path d="M20.0006 17.1652L25.7953 23.3625L24.8537 24.243L19.0591 18.0456L20.0006 17.1652Z" fill="white" style="mix-blend-mode:exclusion"/>
<path d="M32.0648 8.54114L36.4052 15.8312L35.3883 16.4367L28.5215 13.3103L28.4611 13.3463L31.6325 18.6729L30.5249 19.3323L26.1844 12.0423L27.2115 11.4308L34.0842 14.5672L34.1547 14.5253L30.9773 9.18861L32.0648 8.54114Z" fill="white" style="mix-blend-mode:exclusion"/>
<path d="M40.2439 14.1304L37.5572 6.08265L42.6037 4.39788L42.9562 5.45387L39.1324 6.73043L39.9451 9.16476L43.5021 7.97726L43.851 9.02213L40.294 10.2096L41.1141 12.6662L44.9823 11.3748L45.3349 12.4308L40.2439 14.1304Z" fill="white" style="mix-blend-mode:exclusion"/>
<path d="M63.5851 2.73228L62.6756 11.1678L61.3939 11.0296L62.3035 2.59409L63.5851 2.73228Z" fill="white" style="mix-blend-mode:exclusion"/>
<path d="M77.9955 6.23765L75.3088 14.2854L74.1861 13.9106L72.0697 6.66848L72.0031 6.64621L70.04 12.5264L68.8172 12.1182L71.504 4.07046L72.6378 4.44897L74.7504 11.7022L74.8282 11.7282L76.795 5.83687L77.9955 6.23765Z" fill="white" style="mix-blend-mode:exclusion"/>
<path d="M82.3116 14.787L83.3991 15.4345L83.5643 16.7603C84.3124 16.592 85.0471 16.0338 85.6406 15.037C86.6957 13.2648 86.3288 11.7507 85.0803 11.0073C83.8216 10.2579 82.3157 10.6569 81.2605 12.4291C80.2054 14.2013 80.5723 15.7154 81.8309 16.4648C82.0625 16.6027 82.297 16.7013 82.5454 16.7538L82.3116 14.787ZM86.7381 15.6904C85.9408 17.0296 84.8571 17.796 83.7212 17.9858L83.9466 19.8521L82.8088 19.1746L82.6742 18.0034C82.1826 17.9357 81.6936 17.7605 81.2254 17.4818C79.3224 16.3487 78.7781 14.1016 80.163 11.7756C81.5538 9.43958 83.7827 8.85723 85.6858 9.9903C87.5687 11.1114 88.129 13.3544 86.7381 15.6904Z" fill="white" style="mix-blend-mode:exclusion"/>
<path d="M96.4762 18.4636L97.4178 19.344L93.608 23.4184C92.3915 24.7195 90.5512 24.7316 89.0704 23.3469C87.5724 21.9463 87.4696 20.1174 88.6861 18.8163L92.4959 14.7419L93.4375 15.6223L89.6997 19.6197C88.9154 20.4585 88.9292 21.6105 89.8708 22.4909C90.8038 23.3633 91.9541 23.2999 92.7385 22.461L96.4762 18.4636Z" fill="white" style="mix-blend-mode:exclusion"/>
<path d="M102.978 26.3162L95.9953 31.1359L95.263 30.075L102.246 25.2553L102.978 26.3162Z" fill="white" style="mix-blend-mode:exclusion"/>
<path d="M99.4776 36.8753L107.327 33.6548L108.475 36.452C109.222 38.2734 108.572 39.5914 107.13 40.183C106.073 40.6167 105.075 40.4688 104.331 39.6593L101.866 42.6973L101.31 41.3421L103.616 38.534L103.585 38.4581L102.927 36.8535L99.9669 38.0679L99.4776 36.8753ZM103.957 36.431L104.566 37.9163C105.042 39.0763 105.747 39.3443 106.636 38.9796C107.525 38.6148 107.883 37.9109 107.407 36.7508L106.797 35.2655L103.957 36.431Z" fill="white" style="mix-blend-mode:exclusion"/>
<path d="M111.154 44.1686L111.409 45.6111L108.006 48.4483L108.022 48.5406L112.192 50.0543L112.447 51.4969L106.834 49.3571L103.556 49.935L103.332 48.6655L106.61 48.0876L111.154 44.1686Z" fill="white" style="mix-blend-mode:exclusion"/>
</svg>
