<svg width="114" height="118" viewBox="0 0 114 118" fill="none" xmlns="http://www.w3.org/2000/svg">
<path d="M105.658 73.3708C102.993 72.9007 101.648 71.0096 102.029 68.8515C102.413 66.6703 104.321 65.3646 106.987 65.8347C109.665 66.3068 111 68.1843 110.615 70.3655C110.234 72.5236 108.336 73.8429 105.658 73.3708ZM105.88 72.1129C107.911 72.471 109.197 71.591 109.449 70.16C109.704 68.7174 108.797 67.4508 106.765 67.0926C104.734 66.7345 103.449 67.6145 103.194 69.057C102.942 70.4881 103.849 71.7547 105.88 72.1129Z" fill="white"/>
<path d="M106.016 84.6166L98.1668 81.3961L98.6161 80.3011L105.984 78.6753L106.011 78.6102L100.275 76.2571L100.765 75.0645L108.614 78.285L108.16 79.3909L100.782 81.0122L100.751 81.0881L106.497 83.4457L106.016 84.6166Z" fill="white"/>
<path d="M96.1816 84.9291L103.164 89.7488L102.432 90.8096L96.3656 86.6224L94.1887 89.7761L93.2725 89.1437L96.1816 84.9291Z" fill="white"/>
<path d="M93.9261 100.869L88.1315 94.6715L89.073 93.7911L94.8677 99.9884L93.9261 100.869Z" fill="white"/>
<path d="M81.943 109.422L77.6026 102.132L78.6196 101.527L85.4863 104.653L85.5468 104.617L82.3753 99.2906L83.483 98.6311L87.8234 105.921L86.7963 106.533L79.9236 103.396L79.8531 103.438L83.0305 108.775L81.943 109.422Z" fill="white"/>
<path d="M73.8928 103.764L76.5796 111.812L71.533 113.496L71.1805 112.44L75.0043 111.164L74.1916 108.729L70.6346 109.917L70.2857 108.872L73.8428 107.685L73.0226 105.228L69.1544 106.519L68.8018 105.463L73.8928 103.764Z" fill="white"/>
<path d="M50.8329 115.118L51.7424 106.683L53.024 106.821L52.1145 115.257L50.8329 115.118Z" fill="white"/>
<path d="M36.5294 111.628L39.2161 103.581L40.3388 103.955L42.4552 111.198L42.5218 111.22L44.4849 105.34L45.7077 105.748L43.0209 113.796L41.8871 113.417L39.7745 106.164L39.6967 106.138L37.7299 112.029L36.5294 111.628Z" fill="white"/>
<path d="M32.3403 103.126L31.2528 102.478L31.0875 101.152C30.3394 101.321 29.6048 101.879 29.0112 102.876C27.9561 104.648 28.323 106.162 29.5716 106.905C30.8302 107.655 32.3362 107.256 33.3913 105.484C34.4465 103.711 34.0796 102.197 32.8209 101.448C32.5893 101.31 32.3549 101.211 32.1065 101.159L32.3403 103.126ZM27.9137 102.222C28.7111 100.883 29.7947 100.117 30.9306 99.9268L30.7052 98.0605L31.843 98.738L31.9776 99.9092C32.4692 99.9769 32.9582 100.152 33.4264 100.431C35.3295 101.564 35.8737 103.811 34.4889 106.137C33.098 108.473 30.8692 109.055 28.9661 107.922C27.0831 106.801 26.5228 104.558 27.9137 102.222Z" fill="white"/>
<path d="M18.2899 99.5216L17.3484 98.6412L21.1581 94.5667C22.3747 93.2656 24.2149 93.2536 25.6957 94.6382C27.1937 96.0389 27.2965 97.8678 26.08 99.1688L22.2702 103.243L21.3287 102.363L25.0664 98.3655C25.8507 97.5266 25.8369 96.3746 24.8954 95.4942C23.9623 94.6218 22.812 94.6853 22.0276 95.5242L18.2899 99.5216Z" fill="white"/>
<path d="M11.9001 91.7869L18.8826 86.9672L19.6149 88.0281L12.6324 92.8478L11.9001 91.7869Z" fill="white"/>
<path d="M15.4604 81.3238L7.61098 84.5443L6.46334 81.7472C5.71604 79.9258 6.36596 78.6078 7.80791 78.0162C8.86498 77.5825 9.86298 77.7303 10.6068 78.5398L13.0717 75.5019L13.6277 76.8571L11.3218 79.6652L11.353 79.741L12.0113 81.3456L14.9711 80.1313L15.4604 81.3238ZM10.9813 81.7682L10.3719 80.2829C9.89596 79.1228 9.19068 78.8549 8.30166 79.2196C7.41264 79.5844 7.05543 80.2883 7.53139 81.4483L8.1408 82.9336L10.9813 81.7682Z" fill="white"/>
<path d="M3.82994 74.1574L3.57557 72.7148L6.97835 69.8777L6.96207 69.7854L2.79212 68.2717L2.53775 66.8291L8.15085 68.9689L11.4284 68.391L11.6523 69.6605L8.3747 70.2384L3.82994 74.1574Z" fill="white"/>
<path d="M8.08571 44.48C10.7516 44.9501 12.096 46.8412 11.7155 48.9993C11.3309 51.1805 9.4228 52.4862 6.75689 52.0161C4.07945 51.544 2.74457 49.6665 3.12917 47.4853C3.50971 45.3272 5.40827 44.0079 8.08571 44.48ZM7.8639 45.738C5.83274 45.3798 4.54712 46.2598 4.29479 47.6908C4.04042 49.1334 4.94754 50.4 6.9787 50.7582C9.00987 51.1163 10.2955 50.2364 10.5499 48.7938C10.8022 47.3627 9.89507 46.0961 7.8639 45.738Z" fill="white"/>
<path d="M7.7279 33.2341L15.5773 36.4546L15.128 37.5496L7.76028 39.1754L7.73359 39.2405L13.4688 41.5936L12.9795 42.7862L5.13015 39.5657L5.58387 38.4598L12.9625 36.8385L12.9936 36.7626L7.2475 34.405L7.7279 33.2341Z" fill="white"/>
<path d="M17.5625 32.9218L10.58 28.1021L11.3123 27.0412L17.3786 31.2285L19.5554 28.0748L20.4716 28.7072L17.5625 32.9218Z" fill="white"/>
<path d="M19.818 16.9818L25.6127 23.1791L24.6711 24.0595L18.8764 17.8622L19.818 16.9818Z" fill="white"/>
<path d="M31.8011 8.42841L36.1416 15.7185L35.1246 16.324L28.2578 13.1976L28.1974 13.2336L31.3688 18.5602L30.2612 19.2196L25.9207 11.9295L26.9478 11.318L33.8206 14.4545L33.8911 14.4125L30.7137 9.07588L31.8011 8.42841Z" fill="white"/>
<path d="M39.8513 14.087L37.1646 6.03929L42.2111 4.35451L42.5636 5.4105L38.7399 6.68707L39.5525 9.1214L43.1096 7.93389L43.4584 8.97877L39.9014 10.1663L40.7215 12.6228L44.5898 11.3314L44.9423 12.3874L39.8513 14.087Z" fill="white"/>
<path d="M62.9113 2.73228L62.0018 11.1678L60.7201 11.0296L61.6296 2.59409L62.9113 2.73228Z" fill="white"/>
<path d="M77.2148 6.22226L74.528 14.27L73.4053 13.8952L71.289 6.65308L71.2223 6.63082L69.2592 12.511L68.0365 12.1028L70.7232 4.05506L71.857 4.43358L73.9696 11.6868L74.0475 11.7128L76.0143 5.82147L77.2148 6.22226Z" fill="white"/>
<path d="M81.4039 14.7251L82.4913 15.3726L82.6566 16.6984C83.4047 16.5301 84.1394 15.9719 84.7329 14.9751C85.788 13.2029 85.4211 11.6888 84.1726 10.9454C82.9139 10.196 81.4079 10.595 80.3528 12.3672C79.2977 14.1394 79.6646 15.6535 80.9232 16.4029C81.1548 16.5407 81.3893 16.6394 81.6377 16.6919L81.4039 14.7251ZM85.8304 15.6285C85.0331 16.9677 83.9494 17.7341 82.8135 17.9239L83.0389 19.7902L81.9011 19.1127L81.7665 17.9415C81.2749 17.8738 80.7859 17.6986 80.3177 17.4198C78.4146 16.2868 77.8704 14.0397 79.2553 11.7137C80.6461 9.37768 82.875 8.79532 84.7781 9.92839C86.661 11.0495 87.2213 13.2925 85.8304 15.6285Z" fill="white"/>
<path d="M95.4542 18.3291L96.3958 19.2095L92.586 23.284C91.3695 24.5851 89.5293 24.5971 88.0484 23.2125C86.5505 21.8118 86.4476 19.983 87.6642 18.6819L91.4739 14.6074L92.4155 15.4878L88.6778 19.4852C87.8934 20.3241 87.9072 21.4761 88.8488 22.3565C89.7818 23.2289 90.9321 23.1654 91.7165 22.3265L95.4542 18.3291Z" fill="white"/>
<path d="M101.844 26.0638L94.8615 30.8835L94.1293 29.8226L101.112 25.0029L101.844 26.0638Z" fill="white"/>
<path d="M98.2838 36.527L106.133 33.3065L107.281 36.1036C108.028 37.9251 107.378 39.243 105.936 39.8347C104.879 40.2684 103.881 40.1205 103.137 39.311L100.672 42.349L100.116 40.9938L102.422 38.1857L102.391 38.1098L101.733 36.5052L98.7731 37.7196L98.2838 36.527ZM102.763 36.0826L103.372 37.5679C103.848 38.728 104.553 38.996 105.442 38.6312C106.332 38.2665 106.689 37.5626 106.213 36.4025L105.603 34.9172L102.763 36.0826Z" fill="white"/>
<path d="M109.914 43.6933L110.169 45.1359L106.766 47.973L106.782 48.0653L110.952 49.579L111.206 51.0216L105.593 48.8818L102.316 49.4597L102.092 48.1902L105.369 47.6123L109.914 43.6933Z" fill="white"/>
</svg>
