<svg width="100" height="26" viewBox="0 0 100 26" fill="none" xmlns="http://www.w3.org/2000/svg">
<path d="M91.0673 25.9809C85.5805 25.9809 82.168 22.2003 82.168 16.5797C82.168 10.9591 85.5805 7.21204 91.0673 7.21204C96.5541 7.21204 100 10.9591 100 16.5797C100 22.2003 96.5541 25.9809 91.0673 25.9809ZM91.1007 22.1334C93.6434 22.1334 94.9482 19.758 94.9482 16.5797C94.9482 13.3679 93.6434 10.9926 91.1007 10.9926C88.5246 10.9926 87.1864 13.3679 87.1864 16.5797C87.1864 19.758 88.5246 22.1334 91.1007 22.1334Z" fill="white"/>
<path d="M74.1053 25.6129V7.44628H79.0568V25.6129H74.1053ZM76.581 5.0709C75.0755 5.0709 73.8711 3.9334 73.8711 2.5617C73.8711 1.15655 75.0755 0.019043 76.581 0.019043C78.0531 0.019043 79.2575 1.15655 79.2575 2.5617C79.2575 3.9334 78.0531 5.0709 76.581 5.0709Z" fill="white"/>
<path d="M71.6964 7.44629L65.3063 25.6129H59.7526L53.396 7.44629H58.6151L62.4291 20.4941H62.6299L66.4438 7.44629H71.6964Z" fill="white"/>
<path d="M40.9165 25.6128V7.44624H45.7007V10.5911H45.9014C46.5706 8.34955 48.2434 7.17859 50.2842 7.17859C50.786 7.17859 51.4217 7.2455 51.8566 7.34587V11.7621C51.3882 11.6282 50.4515 11.4944 49.7489 11.4944C47.5073 11.4944 45.868 13.0668 45.868 15.2749V25.6128H40.9165Z" fill="white"/>
<path d="M32.1178 17.8846V7.44629H37.0693V25.6129H32.3185V22.3342H32.1178C31.2814 24.4419 29.3409 25.8471 26.5975 25.8471C22.9508 25.8471 20.4751 23.271 20.4751 19.0221V7.44629H25.4266V18.1522C25.4266 20.2934 26.6645 21.6651 28.6049 21.6651C30.4115 21.6651 32.1178 20.3603 32.1178 17.8846Z" fill="white"/>
<path d="M4.95149 15.1077V25.6128H0V7.44623H4.7173V10.6245H4.91803C5.75443 8.51682 7.69488 7.21204 10.3714 7.21204C14.1519 7.21204 16.6611 9.78815 16.6276 14.0371V25.6128H11.7096V14.9069C11.7096 12.6654 10.4717 11.3271 8.43091 11.3271C6.35664 11.3271 4.95149 12.6988 4.95149 15.1077Z" fill="white"/>
</svg>
