<svg width="86" height="26" viewBox="0 0 86 26" fill="none" xmlns="http://www.w3.org/2000/svg">
<path d="M76.6713 25.9619C71.1845 25.9619 67.772 22.1813 67.772 16.5607C67.772 10.9401 71.1845 7.19305 76.6713 7.19305C82.1581 7.19305 85.604 10.9401 85.604 16.5607C85.604 22.1813 82.1581 25.9619 76.6713 25.9619ZM76.7047 22.1144C79.2474 22.1144 80.5522 19.7391 80.5522 16.5607C80.5522 13.349 79.2474 10.9736 76.7047 10.9736C74.1286 10.9736 72.7904 13.349 72.7904 16.5607C72.7904 19.7391 74.1286 22.1144 76.7047 22.1144Z" fill="white"/>
<path d="M59.7093 25.5938V7.42723H64.6608V25.5938H59.7093ZM62.185 5.05186C60.6795 5.05186 59.4751 3.91435 59.4751 2.54266C59.4751 1.1375 60.6795 0 62.185 0C63.6571 0 64.8615 1.1375 64.8615 2.54266C64.8615 3.91435 63.6571 5.05186 62.185 5.05186Z" fill="white"/>
<path d="M57.3004 7.42725L50.9103 25.5939H45.3566L39 7.42725H44.2191L48.0331 20.4751H48.2339L52.0478 7.42725H57.3004Z" fill="white"/>
<path d="M32.1178 17.8655V7.42725H37.0693V25.5939H32.3185V22.3152H32.1178C31.2814 24.4229 29.3409 25.828 26.5975 25.828C22.9508 25.828 20.4751 23.2519 20.4751 19.003V7.42725H25.4266V18.1332C25.4266 20.2744 26.6645 21.646 28.6049 21.646C30.4115 21.646 32.1178 20.3413 32.1178 17.8655Z" fill="white"/>
<path d="M4.95149 15.0887V25.5939H0V7.42725H4.7173V10.6056H4.91803C5.75443 8.49784 7.69488 7.19305 10.3714 7.19305C14.1519 7.19305 16.6611 9.76917 16.6276 14.0181V25.5939H11.7096V14.8879C11.7096 12.6464 10.4717 11.3081 8.43091 11.3081C6.35664 11.3081 4.95149 12.6798 4.95149 15.0887Z" fill="white"/>
</svg>
